{"asset":{"version":"2.0","generator":"babylon.js glTF exporter for 3dsmax 2018 v20200429.2"},"scene":0,"scenes":[{"nodes":[0,1]}],"nodes":[{"mesh":0,"name":"322"},{"name":"Default light"}],"meshes":[{"primitives":[{"attributes":{"POSITION":1,"NORMAL":2,"TEXCOORD_0":3},"indices":0,"material":0},{"attributes":{"POSITION":5,"NORMAL":6,"TEXCOORD_0":7},"indices":4,"material":1}],"name":"322"}],"accessors":[{"bufferView":0,"componentType":5125,"count":59400,"type":"SCALAR","name":"accessorIndices"},{"bufferView":1,"componentType":5126,"count":59400,"max":[0.356118,1.75603,0.36137],"min":[-0.315639973,0.744623,-0.074014],"type":"VEC3","name":"accessorPositions"},{"bufferView":1,"byteOffset":712800,"componentType":5126,"count":59400,"type":"VEC3","name":"accessorNormals"},{"bufferView":2,"componentType":5126,"count":59400,"type":"VEC2","name":"accessorUVs"},{"bufferView":0,"byteOffset":237600,"componentType":5125,"count":18564,"type":"SCALAR","name":"accessorIndices"},{"bufferView":1,"byteOffset":1425600,"componentType":5126,"count":18564,"max":[0.297397,1.15390193,0.31368798],"min":[-0.30822,-0.011739,-0.196458],"type":"VEC3","name":"accessorPositions"},{"bufferView":1,"byteOffset":1648368,"componentType":5126,"count":18564,"type":"VEC3","name":"accessorNormals"},{"bufferView":2,"byteOffset":475200,"componentType":5126,"count":18564,"type":"VEC2","name":"accessorUVs"}],"bufferViews":[{"buffer":0,"byteLength":311856,"name":"bufferViewScalar"},{"buffer":0,"byteOffset":311856,"byteLength":1871136,"byteStride":12,"name":"bufferViewFloatVec3"},{"buffer":0,"byteOffset":2182992,"byteLength":623712,"byteStride":8,"name":"bufferViewFloatVec2"}],"buffers":[{"uri":"Biomech_Mutant_Skin_1.bin","byteLength":2806704}],"materials":[{"pbrMetallicRoughness":{"baseColorTexture":{"index":2},"metallicRoughnessTexture":{"index":1}},"normalTexture":{"index":0},"occlusionTexture":{"index":1},"name":"Material #25"},{"pbrMetallicRoughness":{"baseColorTexture":{"index":5},"metallicRoughnessTexture":{"index":4}},"normalTexture":{"index":3},"occlusionTexture":{"index":4},"name":"Material #78"}],"textures":[{"sampler":0,"source":0,"name":"T_Biomech_Mutant_Skin_1_Top_n.jpg"},{"sampler":0,"source":1,"name":"T_Biomech_Mutant_Skin_1_Top_AOT_Biomech_Mutant_Skin_1_Top_rgT_Biomech_Mutant_Skin_1_Top_m.jpg"},{"sampler":0,"source":2,"name":"T_Biomech_Mutant_Skin_1_Top_a.jpg"},{"sampler":0,"source":3,"name":"T_Biomech_Mutant_Skin_1_Bottom_n.jpg"},{"sampler":0,"source":4,"name":"T_Biomech_Mutant_Skin_1_Bottom_AOT_Biomech_Mutant_Skin_1_Bottom_rgT_Biomech_Mutant_Skin_1_Bottom_m.jpg"},{"sampler":0,"source":5,"name":"T_Biomech_Mutant_Skin_1_Bottom_a.jpg"}],"images":[{"uri":"./T_Biomech_Mutant_Skin_1_Top_n.jpg"},{"uri":"./T_Biomech_Mutant_Skin_1_Top_AOT_Biomech_Mutant_Skin_1_Top_rgT_Biomech_Mutant_Skin_1_Top_m.jpg"},{"uri":"./T_Biomech_Mutant_Skin_1_Top_a.jpg"},{"uri":"./T_Biomech_Mutant_Skin_1_Bottom_n.jpg"},{"uri":"./T_Biomech_Mutant_Skin_1_Bottom_AOT_Biomech_Mutant_Skin_1_Bottom_rgT_Biomech_Mutant_Skin_1_Bottom_m.jpg"},{"uri":"./T_Biomech_Mutant_Skin_1_Bottom_a.jpg"}],"samplers":[{"magFilter":9729,"minFilter":9987}]}